<?xml version="1.0" standalone="no"?>
<!DOCTYPE svg PUBLIC "-//W3C//DTD SVG 1.1//EN" "http://www.w3.org/Graphics/SVG/1.1/DTD/svg11.dtd" >
<!--
2013-9-30: Created.
-->
<svg>
<metadata>
Created by iconfont
</metadata>
<defs>

<font id="iconfont" horiz-adv-x="1024" >
  <font-face
    font-family="iconfont"
    font-weight="500"
    font-stretch="normal"
    units-per-em="1024"
    ascent="896"
    descent="-128"
  />
    <missing-glyph />
    
    <glyph glyph-name="huifu" unicode="&#58905;" d="M998.448 648.816l-44.368-45.04-147.872 150.16 44.336 45.056c16.336 16.592 41.984 17.424 57.296 1.872l92.432-93.856C1015.616 691.456 1014.768 665.392 998.448 648.816zM582.24 226.544l-147.856 150.192L783.68 731.04l147.872-150.176L582.24 226.544zM561.648 205.632l-207.008-60.064 59.152 210.224L561.648 205.632zM196.16 668.944c-51.072 0-83.216-52.224-83.216-104.416l0-587.76c0-52.192 32.88-83.936 83.984-83.936l587.76 0c51.072 0 86.16 35.104 86.16 87.328L870.848 378.864l102.768 101.68 0-524.784c0-86.992-79.312-167.92-164.432-167.92L162.16-212.16c-85.136 0-154.16 70.544-154.16 157.552L8 599.424c0 87.008 82.8 175.008 167.936 175.008l503.808 0-92.752-105.488L196.16 668.944z"  horiz-adv-x="1024" />

    
    <glyph glyph-name="dizhi" unicode="&#58954;" d="M511.970836 747.596178c-185.303356 0-335.666946-158.832472-335.666946-355.199815 0-75.074859 22.153556-144.903228 59.798944-202.216561 1.833765-3.304256 3.499707-6.557346 5.739724-9.453303l228.604558-304.71705c11.42112-15.954367 26.498514-23.603581 41.578977-23.603581s30.106692 7.650237 41.526789 23.603581l228.687446 304.71705c2.101871 2.895957 3.823072 6.066159 5.489014 9.070586 37.756929 57.534368 59.966767 127.19696 59.966767 202.544019C847.56001 588.763706 697.386756 747.596178 511.970836 747.596178L511.970836 747.596178 511.970836 747.596178 511.970836 747.596178zM732.544487 230.526719l-1.690502-2.703575-1.474584-2.731204-1.121544-1.968841L511.970836-65.254821 295.659255 223.124122l-1.339508 2.459005-1.474584 2.787486-1.613754 2.212388c-31.333636 47.671743-47.806819 103.785761-47.806819 161.813363 0 156.861584 120.369462 284.199761 268.49201 284.199761 148.124596 0 268.494057-127.338177 268.494057-284.199761C780.410658 334.425044 763.909845 278.201531 732.544487 230.526719L732.544487 230.526719 732.544487 230.526719 732.544487 230.526719zM511.970836 534.480382c-74.170257 0-134.299729-63.708997-134.299729-142.139278 0-78.407768 60.129472-142.142347 134.299729-142.142347 74.199932 0 134.274146 63.73458 134.274146 142.142347C646.243959 470.771385 586.114486 534.480382 511.970836 534.480382L511.970836 534.480382 511.970836 534.480382 511.970836 534.480382zM511.970836 321.200858c-36.988426 0-67.178005 31.856545-67.178005 71.140247s30.105668 71.000054 67.178005 71.000054c37.045731 0 67.152423-31.716352 67.152423-71.000054C579.066977 353.108568 548.961308 321.200858 511.970836 321.200858L511.970836 321.200858 511.970836 321.200858 511.970836 321.200858zM511.970836 321.200858"  horiz-adv-x="1024" />

    
    <glyph glyph-name="kuaijiecaidan" unicode="&#58890;" d="M328.996 444.652 122.353 444.652C54.887 444.652 0 499.539 0 567.004L0 773.647C0 841.113 54.887 896 122.353 896l206.643 0c67.465 0 122.352-54.887 122.352-122.353l0-206.643C451.348 499.539 396.461 444.652 328.996 444.652zM122.353 832C90.177 832 64 805.823 64 773.647l0-206.643c0-32.175 26.177-58.352 58.353-58.352l206.643 0c32.175 0 58.352 26.177 58.352 58.352L387.348 773.647c0 32.176-26.177 58.353-58.352 58.353L122.353 832zM838.147 444.652 631.505 444.652c-67.466 0-122.353 54.887-122.353 122.352L509.152 773.647C509.152 841.113 564.039 896 631.505 896l206.643 0C905.613 896 960.5 841.113 960.5 773.647l0-206.643C960.5 499.539 905.613 444.652 838.147 444.652zM631.505 832c-32.176 0-58.353-26.177-58.353-58.353l0-206.643c0-32.175 26.177-58.352 58.353-58.352l206.643 0c32.176 0 58.353 26.177 58.353 58.352L896.501 773.647C896.5 805.823 870.323 832 838.147 832L631.505 832zM328.996-64.033 122.353-64.033C54.887-64.033 0-9.146 0 58.319L0 264.962c0 67.466 54.887 122.353 122.353 122.353l206.643 0c67.465 0 122.352-54.887 122.352-122.353l0-206.643C451.348-9.146 396.461-64.033 328.996-64.033zM122.353 323.314C90.177 323.314 64 297.138 64 264.962l0-206.643c0-32.176 26.177-58.353 58.353-58.353l206.643 0c32.175 0 58.352 26.177 58.352 58.353L387.348 264.962c0 32.176-26.177 58.353-58.352 58.353L122.353 323.315zM838.147-64.033 631.505-64.033c-67.466 0-122.353 54.887-122.353 122.353L509.152 264.962c0 67.466 54.887 122.353 122.353 122.353l206.643 0c67.466 0 122.353-54.887 122.353-122.353l0-206.643C960.5-9.146 905.613-64.033 838.147-64.033zM631.505 323.314c-32.176 0-58.353-26.177-58.353-58.353l0-206.643c0-32.176 26.177-58.353 58.353-58.353l206.643 0c32.176 0 58.353 26.177 58.353 58.353L896.501 264.962c0 32.176-26.177 58.353-58.353 58.353L631.505 323.315z"  horiz-adv-x="1024" />

    
    <glyph glyph-name="z043" unicode="&#58927;" d="M412.367 889.611l-63.88-62.071 460.007-446.973-460.007-446.975 63.88-62.071 523.885 509.044z"  horiz-adv-x="1024" />

    
    <glyph glyph-name="guanbi" unicode="&#58887;" d="M959.52557 52.02412 783.748171 193.273121c35.867906 58.81964 56.906058 127.674844 56.906058 201.608717 0 214.430744-173.829024 388.262838-388.260791 388.262838S64.132646 609.312582 64.132646 394.881838s173.829024-388.262838 388.260791-388.262838c122.906238 0 232.272088 57.267285 303.416428 146.394185l173.10964-139.091872L959.52557 52.02412zM452.393437 55.51257c-187.126888 0-339.367221 152.240333-339.367221 339.368244s152.240333 339.368244 339.367221 339.368244 339.367221-152.240333 339.367221-339.368244S639.520325 55.51257 452.393437 55.51257z"  horiz-adv-x="1024" />

    
    <glyph glyph-name="xuanze" unicode="&#58915;" d="M364.237655 266.438491 140.875494 444.375066c-12.955056 10.320043-31.348985 10.226922-44.197618-0.225127l-57.140395-46.477544c-16.031115-13.039991-17.454534-37.010939-3.080152-51.857065l360.934422-372.742353c17.301038-17.866926 47.204092-12.698207 57.420781 9.977235 87.979774 195.252962 297.532417 519.019881 550.201044 760.500701 10.586103 10.117428 13.737886 25.767873 7.990998 39.237653l0 0c-8.593725 20.140713-33.255405 27.610848-51.638077 15.711843C671.363568 610.793306 460.989209 383.226381 364.237655 266.438491L364.237655 266.438491zM364.237655 266.438491"  horiz-adv-x="1024" />

    
    <glyph glyph-name="caidanzhaolinggan" unicode="&#58902;" d="M512-27.477333 159.082667 342.272c-83.157333 87.082667-97.429333 170.688-94.784 225.493333 3.221333 66.538667 33.386667 129.088 82.730667 171.605333 42.069333 36.181333 96.426667 56.106667 153.066667 56.106667 77.226667 0 153.344-36.437333 211.925333-100.757333 58.602667 64.298667 134.741333 100.757333 211.968 100.757333 56.64 0 110.997333-19.925333 153.045333-56.085333 49.322667-42.538667 79.466667-105.088 82.709333-171.626667 2.666667-54.805333-11.626667-138.410667-94.762667-225.514667L512-27.477333zM300.074667 756.970667c-47.424 0-92.864-16.618667-127.957333-46.784-41.344-35.648-66.624-88.256-69.354667-144.32-3.285333-67.797333 25.813333-135.914667 84.181333-197.056L512 28.266667 837.098667 368.853333c58.346667 61.12 87.424 129.258667 84.138667 197.056-2.709333 56.042667-28.010667 108.672-69.354667 144.341333-35.050667 30.144-80.490667 46.762667-127.914667 46.762667-72.256 0-144.042667-37.888-196.949333-103.914667L512 634.325333l-15.04 18.752C444.096 719.104 372.330667 756.970667 300.074667 756.970667z"  horiz-adv-x="1024" />

    
    <glyph glyph-name="xitongshezhi" unicode="&#58892;" d="M328 795.2c17.6 0 33.6-6.4 46.4-19.2 12.8-12.8 19.2-28.8 19.2-46.4v-264c0-17.6-6.4-33.6-19.2-46.4-12.8-12.8-28.8-19.2-46.4-19.2H65.6C48 400 32 406.4 19.2 419.2 6.4 432 0 448 0 465.6V729.6c0 17.6 6.4 33.6 19.2 46.4 12.8 12.8 27.2 19.2 46.4 19.2h262.4z m0-526.4c17.6 0 33.6-6.4 46.4-19.2 12.8-12.8 19.2-28.8 19.2-46.4v-264c0-17.6-6.4-33.6-19.2-46.4-12.8-12.8-28.8-19.2-46.4-19.2H64c-17.6 0-33.6 6.4-46.4 19.2C6.4-96 0-80 0-62.4V201.6c0 17.6 6.4 33.6 19.2 46.4 12.8 12.8 28.8 19.2 46.4 19.2l262.4 1.6z m528 0c17.6 0 33.6-6.4 46.4-19.2 12.8-12.8 19.2-28.8 19.2-46.4v-264c0-17.6-6.4-33.6-19.2-46.4-12.8-12.8-28.8-19.2-46.4-19.2H592c-17.6 0-33.6 6.4-46.4 19.2-12.8 12.8-19.2 28.8-19.2 46.4V203.2c0 17.6 6.4 33.6 19.2 46.4 12.8 12.8 28.8 19.2 46.4 19.2h264z m147.2 409.6c14.4-14.4 20.8-30.4 20.8-49.6 0-19.2-6.4-35.2-20.8-48L806.4 385.6c-14.4-14.4-30.4-20.8-49.6-20.8-19.2 0-35.2 6.4-49.6 20.8L513.6 580.8c-12.8 12.8-20.8 28.8-20.8 48s6.4 35.2 20.8 49.6L708.8 875.2C723.2 888 739.2 896 758.4 896c19.2 0 35.2-6.4 49.6-20.8l195.2-196.8z"  horiz-adv-x="1024" />

    
    <glyph glyph-name="xitongshezhi1" unicode="&#58931;" d="M862.208 622.592h-542.72c-17.408 0-31.744 14.336-31.744 31.744 0 17.408 14.336 31.744 31.744 31.744h542.72c17.408 0 31.744-14.336 31.744-31.744 0-17.92-14.336-31.744-31.744-31.744zM231.424 758.272C174.08 758.272 127.488 711.68 127.488 654.336S174.08 550.4 231.424 550.4c57.344 0 103.936 46.592 103.936 103.936s-46.592 103.936-103.936 103.936z m0-143.872c-22.016 0-39.936 17.92-39.936 39.936s17.92 39.936 39.936 39.936 39.936-17.92 39.936-39.936-17.92-39.936-39.936-39.936zM622.592 382.976c0-13.312 6.144-24.576 15.872-31.744H159.744c-17.408 0-31.744 14.336-31.744 31.744 0 8.704 3.584 16.896 9.216 22.528s13.824 9.216 22.528 9.216h479.232c-10.24-7.168-16.384-18.944-16.384-31.744zM893.952 382.976c0-8.704-3.584-16.896-9.216-22.528-5.632-5.632-13.824-9.216-22.528-9.216h-175.616c9.728 7.168 15.872 18.944 15.872 31.744s-6.144 24.576-15.872 31.744h175.616c17.408 0 31.744-14.336 31.744-31.744zM761.344 414.72c-13.312 41.472-52.736 71.68-98.816 71.68s-85.504-30.208-98.816-71.68c-3.072-10.24-5.12-20.992-5.12-31.744 0-11.264 1.536-22.016 5.12-31.744 13.312-41.472 52.736-71.68 98.816-71.68s85.504 30.208 98.816 71.68c3.072 10.24 5.12 20.992 5.12 31.744 0 11.264-2.048 21.504-5.12 31.744z m-98.816-71.68c-9.216 0-17.408 3.072-24.064 8.192-9.728 7.168-15.872 18.944-15.872 31.744s6.144 24.576 15.872 31.744c6.656 5.12 14.848 7.68 24.064 7.68 9.216 0 17.408-3.072 24.064-7.68 9.728-7.168 15.872-18.944 15.872-31.744 0-13.312-6.144-24.576-15.872-31.744-6.656-5.12-14.848-8.192-24.064-8.192zM862.208 79.36h-542.72c-17.408 0-31.744 14.336-31.744 31.744 0 17.408 14.336 31.744 31.744 31.744h542.72c17.408 0 31.744-14.336 31.744-31.744 0-17.408-14.336-31.744-31.744-31.744zM231.424 215.04c-57.344 0-103.936-46.592-103.936-103.936s46.592-103.936 103.936-103.936c57.344 0 103.936 46.592 103.936 103.936S288.768 215.04 231.424 215.04z m0-143.36c-22.016 0-39.936 17.92-39.936 39.936s17.92 39.936 39.936 39.936 39.936-17.92 39.936-39.936-17.92-39.936-39.936-39.936z"  horiz-adv-x="1024" />

    
    <glyph glyph-name="lunbo" unicode="&#59026;" d="M821.527273 788.945455c-4.654545 4.654545-11.636364 6.981818-18.618182 6.981818-16.290909 0-30.254545-13.963636-30.254546-32.581818 0-13.963636 6.981818-23.272727 16.29091-30.254546 109.381818-69.818182 183.854545-200.145455 183.854545-349.090909S898.327273 104.727273 791.272727 34.909091c-9.309091-4.654545-18.618182-16.290909-18.618182-30.254546 0-18.618182 13.963636-32.581818 30.254546-32.581818 6.981818 0 11.636364 2.327273 18.618182 6.981818 128 81.454545 211.781818 232.727273 211.781818 404.945455 0 172.218182-86.109091 323.490909-211.781818 404.945455zM856.436364 384c0 102.4-51.2 190.836364-125.672728 237.381818-2.327273 2.327273-11.636364 4.654545-16.290909 4.654546-16.290909 0-30.254545-13.963636-30.254545-32.581819 0-11.636364 6.981818-23.272727 13.963636-27.927272 58.181818-34.909091 95.418182-104.727273 95.418182-181.527273 0-79.127273-39.563636-148.945455-100.072727-183.854545-9.309091-4.654545-13.963636-16.290909-13.963637-27.927273 0-18.618182 13.963636-32.581818 30.254546-32.581818 6.981818 0 16.290909 4.654545 16.290909 4.654545 76.8 46.545455 130.327273 137.309091 130.327273 239.709091zM500.363636-6.981818c-16.290909 13.963636-34.909091 30.254545-51.2 46.545454-121.018182 107.054545-151.272727 116.363636-169.890909 116.363637h-2.327272H93.090909c-20.945455 0-25.6 6.981818-25.6 30.254545V586.472727c0 16.290909 2.327273 25.6 18.618182 25.6h165.236364c18.618182 0 51.2 9.309091 181.527272 114.036364 23.272727 18.618182 46.545455 37.236364 67.490909 53.527273v-786.618182zM537.6 875.054545c-11.636364 6.981818-27.927273 4.654545-37.236364-4.654545 0 0-53.527273-46.545455-111.709091-93.090909-102.4-81.454545-132.654545-95.418182-137.30909-97.745455H104.727273 37.236364c-16.290909 0-30.254545-13.963636-30.254546-32.581818v-521.309091c0-18.618182 13.963636-32.581818 30.254546-32.581818h235.054545c6.981818-2.327273 34.909091-16.290909 123.345455-97.745454 53.527273-46.545455 100.072727-93.090909 100.072727-93.09091 6.981818-6.981818 16.290909-9.309091 23.272727-9.30909 4.654545 0 9.309091 0 13.963637 4.654545 13.963636 6.981818 20.945455 20.945455 20.945454 37.236364V837.818182c4.654545 16.290909-2.327273 30.254545-16.290909 37.236363z"  horiz-adv-x="1033" />

    
    <glyph glyph-name="shuping" unicode="&#58969;" d="M432.984897 829.828919c83.043684 1.234904 138.821002-20.162033 174.211908-55.690149 11.549987-11.596801 20.026435-23.908716 25.903934-36.067278 3.297921-6.821837 4.915403-11.627472 5.315738-13.390237l-0.820041 7.319028v-568.012403c0 2.732932 2.702261 9.067265 12.742921 13.514535 9.617725 4.258402 15.616293 2.322912 17.542099 0.698972l-21.312996-25.271147 26.635191 19.58413c-9.241604 12.57181-27.978251 28.686908-58.322997 43.723684-47.208859 23.393769-110.122795 37.123-190.664385 37.123-80.882197 0-140.85012-13.414451-182.946636-36.629038-28.21716-15.559794-44.280602-32.879126-51.149252-47.049047l29.750701-14.420132-24.822384 21.836014c2.385867 2.713561 9.390116 6.13578 21.711717 1.288175 11.937408-4.694251 14.659041-11.428918 14.65904-14.702625V732.000283l-4.368171-16.425034c1.628782 2.84593 5.515906 8.762171 11.637157 16.713986 10.492651 13.632375 23.198444 27.32932 38.056039 40.088384 42.911714 36.853419 94.380589 58.373039 155.249265 57.4513h0.991152z m0.009686 66.113388c-78.296162 1.184862-144.90674-26.665862-199.328086-73.403359-31.784662-27.297035-52.902333-54.729668-63.998715-74.115245l-4.368171-7.630578v-577.110339c0-48.303323 47.191102-66.864016 79.393855-30.255963l2.966999 3.373791 1.959704 4.043707c1.013752 2.088845 7.570851 9.159277 23.579409 17.987632 31.610322 17.432329 80.677187 28.409256 151.016691 28.409256 70.676884 0 123.550159-11.535459 161.304333-30.246277 20.635009-10.226299 31.272943-19.374277 34.412667-23.645593l2.322911-3.160709 2.99767-2.526308c35.014784-29.531163 78.462431-10.289255 78.462431 36.328787V732.000283l-0.820041 7.317414c-4.988045 21.968383-19.51956 52.030635-48.855398 81.482699C605.651964 869.379757 532.513343 897.435492 432.001817 895.942307h0.992766zM0 563.194512v-617.510273c0-47.436468 44.931146-66.192486 79.374484-34.361011l2.581192 2.669976c2.374568 2.749075 7.998629 8.453848 16.835055 16.147383 15.248243 13.280468 33.663653 26.657791 55.210716 39.200544 62.045467 36.112477 136.446435 57.822579 223.524139 57.822579 85.285882 0 151.250758-24.899868 201.184478-66.252213 17.280589-14.310362 31.324599-29.589276 42.341883-44.748736 6.353704-8.741185 10.137515-15.161074 11.570973-18.105473 7.988943-16.418578 27.774855-23.250101 44.190203-15.262771 16.420192 7.988943 23.251715 27.774855 15.262772 44.191817-10.899443 22.402617-33.749209 53.8386-71.193445 84.850034-61.533749 50.957156-142.306177 81.447186-243.358478 81.447187-99.260479 0-185.009653-25.022551-256.785843-66.797832-43.563873-25.356702-73.122478-51.094368-88.824327-69.274096l25.020937-21.611633-22.438131 24.27838c1.872535 1.732095 7.961501 4.001736 18.182958-0.267966 10.644391-4.442427 13.440279-10.991456 13.440278-13.927784V563.194512c0 18.258827-14.801095 33.059922-33.059922 33.059923S0 581.453339 0 563.194512zM899.851372 895.942307C799.343074 897.435492 726.202839 869.379757 677.813961 820.800396c-29.335838-29.452064-43.868967-59.514317-48.855398-81.482699l-0.820041-7.317414v-568.012403c0-46.618042 43.447647-65.85995 78.462431-36.328786l2.994441 2.526307 2.322911 3.16071c3.139724 4.271316 13.777658 13.419294 34.412667 23.645592 37.755787 18.710818 90.629063 30.246277 161.305947 30.246278 70.339504 0 119.404755-10.976927 151.015077-28.409256 16.010171-8.828355 22.567271-15.898788 23.579409-17.987633l1.961318-4.043706 2.966999-3.373791c32.202753-36.608053 79.392241-18.04736 79.392241 30.255963V740.793125l-4.366557 7.630578c-11.097996 19.385576-32.215667 46.818209-63.998715 74.115245C1043.76696 869.276444 977.156382 897.127169 898.858606 895.942307h0.992766z m0.009685-66.113388c60.868676 0.921739 112.335937-20.597881 155.249266-57.4513 14.85598-12.759064 27.561773-26.456009 38.054424-40.088384 6.122865-7.951815 10.009989-13.868056 11.637157-16.713986l-4.366557 16.425034v-568.317497c0 3.273707 2.721632 10.008375 14.657427 14.702626 12.321601 4.847605 19.327463 1.425386 21.71333-1.288175l-24.822383-21.836014 29.750701 14.420131c-6.870265 14.168307-22.933707 31.489253-51.149253 47.049048-42.096516 23.216201-102.067667 36.629038-182.946636 36.629038-80.543204 0-143.45714-13.72923-190.664384-37.123-30.346361-15.036776-49.083008-31.151874-58.324612-43.723684l26.635191-19.58413-21.312995 25.271147c1.925805 1.625554 7.925987 3.55943 17.542098-0.698972 10.042274-4.44727 12.744535-10.781603 12.744535-13.514535V732.000283l-0.820041-7.319028c0.400335 1.762765 2.017818 6.5684 5.315739 13.390237 5.877499 12.158561 14.355561 24.470477 25.903934 36.067278 35.390905 35.528117 91.168224 56.925054 174.210293 55.690149h0.992766zM1256.277044 563.194512v-617.510273c0 2.936328 2.795888 9.485357 13.440279 13.927783 10.221456 4.269702 16.310423 2.000061 18.182957 0.267967l-22.438131-24.278381 25.020938 21.611633c-15.705077 18.179729-45.262068 43.917395-88.827556 69.274097-71.774576 41.77528-157.522135 66.797831-256.782615 66.797831-101.413894 0-182.231521-32.139797-243.474704-85.765316-37.137528-32.519147-59.638615-65.391816-70.281391-88.740386-7.572466-16.613902-0.242138-36.220632 16.371764-43.793097 16.613902-7.570851 36.222246-0.242138 43.794711 16.373378 1.452829 3.189766 5.23664 10.021289 11.574202 19.277422 10.943028 15.987572 24.907939 32.083299 42.096516 47.136217 49.505942 43.347563 114.992999 69.390323 199.918902 69.390323 87.077704 0 161.478672-21.710102 223.52414-57.822579 21.547063-12.544368 39.962472-25.921691 55.209101-39.200544 8.841269-7.693535 14.462102-13.398308 16.836669-16.147383l2.582807-2.669976c34.441724-31.831475 79.37287-13.075458 79.37287 34.361011V563.194512c0 18.258827-14.799481 33.059922-33.058308 33.059923-18.26367 0-33.063151-14.801095-33.063151-33.059923zM1306.336675 854.384951c-14.013339 13.246568-13.822857 13.039944-30.5207 28.795063-16.701072 15.753505-52.597239 19.387191-74.865873-2.879829-22.26702-22.268634-363.383107-365.10713-363.383107-365.10713l-67.377348-154.915115c-3.591715-8.253681 3.456118-16.124783 11.517702-12.668666 8.061585 3.454504 161.822508 67.377348 161.822508 67.377349L1306.336675 777.793441c27.739341 27.739341 14.013339 63.346556 0 76.59151zM811.914885 390.500004l40.753456 93.939898 55.207488-53.473779-95.960944-40.466119z m125.44045 57.407715l-64.337708 62.489387L1123.51918 759.922035l62.654041-60.670123-248.817886-251.344193z m273.599913 274.778318l-64.116555 62.37639L1175.176922 813.342543l64.103642-62.473245-28.325316-28.183261z m72.7512 71.209588a20807.056257 20807.056257 0 0 1-24.086284-24.139555l-66.452381 63.919616 24.867583 24.315509c10.426467 10.194014 31.084075 9.443386 41.584798-0.590817 10.499108-10.034203 11.231979-10.597578 22.609242-21.777901 13.575876-13.338581 11.509631-31.692649 1.477042-41.726852z"  horiz-adv-x="1322" />

    
    <glyph glyph-name="tongzhi" unicode="&#58945;" d="M954.070705 115.729286l-84.967751 144.929575v200.859412a319.712063 319.712063 0 0 1-66.646805 187.489451 381.051884 381.051884 0 0 1-172.792494 129.41562l-1.224996 0.407999a405.495812 405.495812 0 0 1-15.767954 4.643987v10.20697a102.215701 102.215701 0 0 1-204.483401 0v-9.389973a372.784908 372.784908 0 0 1-13.47196-3.929988l-0.867998-0.254999a380.541885 380.541885 0 0 1-175.803485-129.313622 320.375061 320.375061 0 0 1-67.871801-189.173445v-200.859412L59.234326 105.625316a58.889827 58.889827 0 0 1 0-60.115824 38.834886 38.834886 0 0 1 42.814875-20.411941h255.157252a153.094551 153.094551 0 1 1 306.189103 0h255.157253a44.958868 44.958868 0 0 1 51.03185 50.469853 58.583828 58.583828 0 0 1-15.513954 40.161882zM510.505004 840.937161a48.326858 48.326858 0 0 0 48.837857-44.958868 371.610911 371.610911 0 0 1-16.534951 2.704992 27.19992 27.19992 0 0 1-7.04198 0l-2.908991 0.407999a125.996631 125.996631 0 0 1-46.284865 0l-2.500992-0.356999a29.087915 29.087915 0 0 1-7.297979 0c-5.102985-0.714998-10.20597-1.479996-15.002956-2.398993a48.275859 48.275859 0 0 0 48.734857 44.601869z m0-917.137313a112.269671 112.269671 0 0 0-102.062701 101.348703H612.569705a112.62667 112.62667 0 0 0-102.063701-101.348703z m408.251804 152.379554H102.2542c-3.112991 0 5.102985-7.399978 3.41899-5.102985a8.470975 8.470975 0 0 0 0 8.573975l94.509724 161.156528a25.821924 25.821924 0 0 1 3.469989 12.809962V461.313273a307.975098 307.975098 0 0 0 207.953391 269.649211 552.568381 552.568381 0 0 0 65.524808 15.309955 25.821924 25.821924 0 0 1 5.612984 0c4.133988 0.408999 8.011977 0.969997 11.736965 1.479995a104.103695 104.103695 0 0 0 15.309955 1.581996 102.726699 102.726699 0 0 0 15.309956-1.581996c3.724989-0.509999 7.602978-1.070997 11.787965-1.479995a23.88293 23.88293 0 0 1 5.102985 0 576.91031 576.91031 0 0 0 69.810796-16.686951A308.536096 308.536096 0 0 0 815.92911 461.314273v-207.698391a25.821924 25.821924 0 0 1 3.469989-12.808962l90.121736-153.65555a25.515925 25.515925 0 0 1 4.643987-5.816983 7.959977 7.959977 0 0 0 2.449993-5.919983c-0.203999-4.337987 7.245979 0.764998 2.142993 0.764998z"  horiz-adv-x="1024" />

    
    <glyph glyph-name="pinglunguanlishezhi" unicode="&#59052;" d="M769.374 443.134v-503.078h54.328V443.134h-54.328zM660.72 638.78H416.242c-15.002 0-27.17-12.515-27.17-27.947s12.168-27.946 27.17-27.946H660.72c15.001 0 27.168 12.515 27.168 27.946s-12.167 27.947-27.168 27.947z m0-195.646H416.242c-15.002 0-27.17-12.505-27.17-27.947 0-15.431 12.168-27.946 27.17-27.946H660.72c15.001 0 27.168 12.515 27.168 27.946 0 15.442-12.167 27.947-27.168 27.947z m0-139.744H226.09c-15 0-27.158-12.514-27.158-27.946s12.157-27.947 27.159-27.947H660.72c15.001 0 27.168 12.514 27.168 27.947s-12.167 27.946-27.168 27.946z m0-139.742H226.09c-15 0-27.158-12.515-27.158-27.946 0-15.443 12.157-27.957 27.159-27.957H660.72c15.001 0 27.168 12.514 27.168 27.957 0 15.43-12.167 27.946-27.168 27.946zM280.418 638.78h-54.327c-15.002 0-27.159-12.515-27.159-27.947s12.157-27.946 27.159-27.946h54.327c15.002 0 27.169 12.515 27.169 27.946s-12.167 27.947-27.169 27.947z m0-195.646h-54.327c-15.002 0-27.159-12.505-27.159-27.947 0-15.431 12.157-27.946 27.159-27.946h54.327c15.002 0 27.169 12.515 27.169 27.946 0 15.442-12.167 27.947-27.169 27.947zM823.7 834.426v-391.292h-54.326V778.533H117.436v-782.584h651.938v-55.893H63.11V834.426zM660.72 638.78H416.242c-15.002 0-27.17-12.515-27.17-27.947s12.168-27.946 27.17-27.946H660.72c15.001 0 27.168 12.515 27.168 27.946s-12.167 27.947-27.168 27.947z m0-195.646H416.242c-15.002 0-27.17-12.505-27.17-27.947 0-15.431 12.168-27.946 27.17-27.946H660.72c15.001 0 27.168 12.515 27.168 27.946 0 15.442-12.167 27.947-27.168 27.947z m0-139.744H226.09c-15 0-27.158-12.514-27.158-27.946s12.157-27.947 27.159-27.947H660.72c15.001 0 27.168 12.514 27.168 27.947s-12.167 27.946-27.168 27.946z m0-139.742H226.09c-15 0-27.158-12.515-27.158-27.946 0-15.443 12.157-27.957 27.159-27.957H660.72c15.001 0 27.168 12.514 27.168 27.957 0 15.43-12.167 27.946-27.168 27.946zM280.418 638.78h-54.327c-15.002 0-27.159-12.515-27.159-27.947s12.157-27.946 27.159-27.946h54.327c15.002 0 27.169 12.515 27.169 27.946s-12.167 27.947-27.169 27.947z m0-195.646h-54.327c-15.002 0-27.159-12.505-27.159-27.947 0-15.431 12.157-27.946 27.159-27.946h54.327c15.002 0 27.169 12.515 27.169 27.946 0 15.442-12.167 27.947-27.169 27.947zM660.72 638.78H416.242c-15.002 0-27.17-12.515-27.17-27.947s12.168-27.946 27.17-27.946H660.72c15.001 0 27.168 12.515 27.168 27.946s-12.167 27.947-27.168 27.947zM660.72 303.39H226.09c-15 0-27.158-12.514-27.158-27.946s12.157-27.947 27.159-27.947H660.72c15.001 0 27.168 12.514 27.168 27.947s-12.167 27.946-27.168 27.946zM660.72 163.648H226.09c-15 0-27.158-12.515-27.158-27.946 0-15.443 12.157-27.957 27.159-27.957H660.72c15.001 0 27.168 12.514 27.168 27.957 0 15.43-12.167 27.946-27.168 27.946zM769.374 443.134v-503.078h190.151V443.134h-190.15z m135.824-447.185H823.7V387.241h81.497v-391.292zM280.418 638.78h-54.327c-15.002 0-27.159-12.515-27.159-27.947s12.157-27.946 27.159-27.946h54.327c15.002 0 27.169 12.515 27.169 27.946s-12.167 27.947-27.169 27.947zM660.72 443.134H416.242c-15.002 0-27.17-12.505-27.17-27.947 0-15.431 12.168-27.946 27.17-27.946H660.72c15.001 0 27.168 12.515 27.168 27.946 0 15.442-12.167 27.947-27.168 27.947zM280.418 443.134h-54.327c-15.002 0-27.159-12.505-27.159-27.947 0-15.431 12.157-27.946 27.159-27.946h54.327c15.002 0 27.169 12.515 27.169 27.946 0 15.442-12.167 27.947-27.169 27.947z"  horiz-adv-x="1024" />

    
    <glyph glyph-name="icon" unicode="&#58636;" d="M251.7291143391927 763.3687025756835c104.14042794799802-4.250629577636719 265.66435766601563-23.37846350097656 335.79974816894526-78.6366496582031v-671.5994963378905c-72.26070529174805 17.00251913452148-197.65428195190432 42.50629742431641-335.79974816894526 48.882241790771474V763.3687025756835m-42.50629742431641 42.50629742431641v-786.3664990539551c174.27581845092774 0 342.1756925354004-42.50629742431641 399.55919430541996-57.383500946044926l21.253148712158204 6.375944366455077V703.8598868408203C530.1453607381185 803.7496852111817 230.47596562703447 805.875 209.22281691487635 805.875zM965.8349072774251 763.3687025756835v-701.3539042053222c-136.02015142822268-4.250629577636719-263.5390428771973-31.87972265625-335.79974734497074-48.882241790771474V684.7320529174805C702.2958652242025 737.8649242858887 861.694479329427 759.118072998047 965.8349072774251 763.3687025756835m42.50629742431641 42.50629742431641c-19.127833923339843 0-318.7972290344239-2.1253147888183594-420.8123421936035-102.01511315917968v-735.3589424743651l21.253148712158204-6.375944366455077c61.63413134765625 17.00251913452148 229.53400543212894 57.383500946044926 399.55919348144516 57.383500946044926V805.875zM1106.1056882832843 19.508500946044933h-97.76448358154295c-12.751889556884768 0-21.253148712158204 8.501259155273438-21.253148712158204 21.253148712158204s8.501259155273438 21.253148712158204 21.253148712158204 21.253148712158204h55.25818615722657V742.1155538635254c0 12.751889556884768 8.501259155273438 21.253148712158204 21.253148712158204 21.253148712158204s21.253148712158204-8.501259155273438 21.253148712158204-21.253148712158204v-722.6070529174806zM209.22281691487635 19.508500946044933H111.45833333333333V742.1155538635254c0 12.751889556884768 8.501259155273438 21.253148712158204 21.253148712158204 21.253148712158204s21.253148712158204-8.501259155273438 21.253148712158204-21.253148712158204v-680.1007554931641h55.25818615722657c12.751889556884768 0 21.253148712158204-8.501259155273438 21.253148712158204-21.253148712158204s-10.626573944091797-21.253148712158204-21.253148712158204-21.253148712158204z"  horiz-adv-x="1207" />

    
    <glyph glyph-name="liuyanguanli" unicode="&#58909;" d="M711.410526 497.178947c-32.336842 0-56.589474-24.252632-56.589473-56.589473 0-32.336842 24.252632-56.589474 56.589473-56.589474 32.336842 0 56.589474 24.252632 56.589474 56.589474 0 32.336842-26.947368 56.589474-56.589474 56.589473z m226.357895 339.536842H86.231579C40.421053 836.715789 0 798.989474 0 750.484211v-622.484211c0-45.810526 37.726316-86.231579 86.231579-86.231579h312.589474l113.178947-113.178947 113.178947 113.178947h312.589474c45.810526 0 86.231579 37.726316 86.231579 86.231579V753.178947c-2.694737 45.810526-40.421053 83.536842-86.231579 83.536842z m35.031579-684.463157c0-32.336842-26.947368-56.589474-56.589474-56.589474H598.231579L512 9.431579l-86.231579 86.231579H107.789474c-32.336842 0-56.589474 26.947368-56.589474 56.589474V731.621053C48.505263 761.263158 75.452632 788.210526 107.789474 788.210526h808.421052c32.336842 0 56.589474-26.947368 56.589474-56.589473v-579.368421zM312.589474 497.178947c-32.336842 0-56.589474-24.252632-56.589474-56.589473 0-32.336842 24.252632-56.589474 56.589474-56.589474 32.336842 0 56.589474 24.252632 56.589473 56.589474 0 32.336842-24.252632 56.589474-56.589473 56.589473z m199.410526 0c-32.336842 0-56.589474-24.252632-56.589474-56.589473 0-32.336842 24.252632-56.589474 56.589474-56.589474 32.336842 0 56.589474 24.252632 56.589474 56.589474 0 32.336842-24.252632 56.589474-56.589474 56.589473z"  horiz-adv-x="1024" />

    
    <glyph glyph-name="-" unicode="&#58914;" d="M74 712.3h216V-22H74zM298-30H66V720.3h232V-30zM82-14h200V704.3H82V-14zM125.6 649.4h116.8v-229.2H125.6zM250.4 412.2H117.6V657.4h132.8v-245.2z m-116.8 16h100.8V641.4H133.6v-213.2zM178.8 112.1m-55.2 0a55.2 55.2 0 1 1 110.4 0 55.2 55.2 0 1 1-110.4 0ZM178.8 48.9c-34.8 0-63.2 28.3-63.2 63.2s28.3 63.2 63.2 63.2c34.8 0 63.2-28.3 63.2-63.2s-28.4-63.2-63.2-63.2z m0 110.4c-26 0-47.2-21.2-47.2-47.2s21.2-47.2 47.2-47.2 47.2 21.2 47.2 47.2-21.2 47.2-47.2 47.2zM519.4 671.8L728 727.7l190.1-709.3-208.6-55.9M517.346 679.603l7.727 2.07 4.14-15.454-7.727-2.07zM544.1 670.2l-4.1 15.5 14.9 4 4.1-15.5-14.9-4z m29.7 7.9l-4.1 15.5 14.9 4 4.1-15.5-14.9-4z m29.7 8l-4.1 15.5 14.9 4 4.1-15.5-14.9-4z m29.7 8l-4.1 15.5 14.9 4 4.1-15.5-14.9-4zM663 702l-4.1 15.5 14.9 4 4.1-15.5-14.9-4z m29.7 8l-4.1 15.5 14.9 4 4.1-15.5-14.9-4zM722.4 717.9l-4.2 15.5 15.5 4.1 4.1-15.4zM904.2 39.5l-4.1 15.4 15.5 4.1 4.1-15.4-15.5-4.1z m-8.3 30.8l-4.1 15.4 15.5 4.1 4.1-15.4-15.5-4.1z m-8.3 30.9l-4.1 15.4 15.5 4.1 4.1-15.4-15.5-4.1z m-8.2 30.8l-4.1 15.4 15.5 4.1 4.1-15.4-15.5-4.1z m-8.3 30.8l-4.1 15.4 15.5 4.1 4.1-15.4-15.5-4.1z m-8.2 30.9l-4.1 15.4 15.5 4.1 4.1-15.4-15.5-4.1z m-8.3 30.8l-4.1 15.4L866 244l4.1-15.4-15.5-4.1z m-8.3 30.9l-4.1 15.4 15.5 4.1 4.1-15.4-15.5-4.1z m-8.2 30.8l-4.1 15.4 15.5 4.1 4.1-15.4-15.5-4.1z m-8.3 30.8l-4.1 15.4 15.5 4.1 4.1-15.4-15.5-4.1z m-8.3 30.9l-4.1 15.4 15.5 4.1L837 352l-15.5-4.1z m-8.2 30.8l-4.1 15.4 15.5 4.1 4.1-15.4-15.5-4.1z m-8.3 30.9l-4.1 15.4 15.5 4.1 4.1-15.4-15.5-4.1z m-8.2 30.8l-4.1 15.4 15.5 4.1 4.1-15.4-15.5-4.1z m-8.3 30.8l-4.1 15.4 15.5 4.1 4.1-15.4-15.5-4.1z m-8.3 30.9l-4.1 15.4 15.5 4.1 4.1-15.4-15.5-4.1z m-8.2 30.8l-4.1 15.4 15.5 4.1 4.1-15.4-15.5-4.1z m-8.3 30.8l-4.1 15.4 15.5 4.1 4.1-15.4-15.5-4.1z m-8.3 30.9l-4.1 15.4 15.5 4.1 4.1-15.4-15.5-4.1z m-8.2 30.8l-4.1 15.4 15.5 4.1 4.1-15.4-15.5-4.1z m-8.3 30.9l-4.1 15.4 15.5 4.1 4.1-15.4-15.5-4.1z m-8.3 30.8l-4.1 15.4 15.5 4.1 4.1-15.4-15.5-4.1zM908.303 24.06l15.454 4.142 4.143-15.455-15.455-4.142zM734.2-39.1l-4.1 15.5 14.9 4 4.1-15.5-14.9-4z m29.7 7.9l-4.1 15.5 14.9 4 4.1-15.5-14.9-4z m29.7 8l-4.1 15.5 14.9 4 4.1-15.5-14.9-4z m29.7 7.9l-4.1 15.5 14.9 4 4.1-15.5-14.9-4z m29.7 8l-4.1 15.5 14.9 4 4.1-15.5-14.9-4z m29.7 8l-4.1 15.5 14.9 4 4.1-15.5-14.9-4zM707.443-29.66l7.727 2.07 4.141-15.454-7.727-2.07zM583.619 623.88l112.817 30.229 59.317-221.385-112.817-30.228zM637.3 392.7l-63.5 236.8L702.1 664l63.5-236.8-128.3-34.5z m-43.9 225.6l55.2-205.9 97.4 26.1-55.2 205.9-97.4-26.1zM722.664239 104.902744a55.2 55.2 0 1 1 106.63871 28.571762 55.2 55.2 0 1 1-106.63871-28.571762ZM776 56c-27.9 0-53.5 18.6-61 46.8-9 33.7 11 68.4 44.7 77.4s68.4-11 77.4-44.7c9-33.6-11-68.4-44.7-77.4-5.5-1.4-11-2.1-16.4-2.1z m0 110.4c-4 0-8.1-0.5-12.2-1.6-25.1-6.7-40.1-32.7-33.4-57.8 6.7-25.1 32.7-40.1 57.8-33.4 25.1 6.7 40.1 32.7 33.4 57.8-5.7 21-24.8 35-45.6 35zM888.182 35.66l47.04 12.603 12.603-47.04-47.04-12.603zM895.2-21.2l-16.8 62.5 62.5 16.8 16.8-62.5-62.5-16.8zM898 30l8.5-31.6 31.6 8.5-8.5 31.6L898 30zM698.202 744.96l47.04 12.604 12.603-47.04-47.04-12.603zM705.1 688.1l-16.8 62.5 62.5 16.8 16.8-62.5-62.5-16.8z m2.9 51.2l8.5-31.6 31.6 8.5-8.5 31.6-31.6-8.5zM291.4 712.3h216V-22h-216zM515.4-30h-232V720.3h232V-30z m-216 16h200V704.3h-200V-14zM343 649.4h116.8v-229.2H343zM467.8 412.2H335V657.4h132.8v-245.2z m-116.8 16h100.8V641.4H351v-213.2zM396.2 112.1m-55.2 0a55.2 55.2 0 1 1 110.4 0 55.2 55.2 0 1 1-110.4 0ZM396.2 48.9c-34.8 0-63.2 28.3-63.2 63.2s28.3 63.2 63.2 63.2c34.8 0 63.2-28.3 63.2-63.2s-28.4-63.2-63.2-63.2z m0 110.4c-26 0-47.2-21.2-47.2-47.2s21.2-47.2 47.2-47.2 47.2 21.2 47.2 47.2-21.2 47.2-47.2 47.2zM712.5-45.5L518.4 678.8M510.727 676.772l15.454 4.141 194.074-724.328-15.454-4.141z"  horiz-adv-x="1024" />

    
    <glyph glyph-name="tushu" unicode="&#58884;" d="M550.336 586.88c53.184 59.648 196.224 96.128 270.912 96.128v-459.2c0-21.376-21.312-21.376-21.312-21.376s-151.04-12.416-249.6-74.752v459.2zM202.688 223.808v459.2c96 0 222.592-36.544 270.848-96.128v-459.2C375.488 190.08 224 202.432 224 202.432s-21.312 0-21.312 21.376z m784.96 501.952c-36.224 0-36.224-42.688-36.224-42.688v-491.264s-6.4-96.128-98.112-96.128h-192s64 21.376 149.312 32.064c0 0 85.376-0.704 85.376 85.44V768.448s-280.704-14.016-384-117.44c-106.048 106.112-383.616 117.44-383.616 117.44S128 254.72 128 213.12c0-89.408 85.312-85.44 85.312-85.44 85.312-10.688 149.312-32.064 149.312-32.064h-192c-85.248 0-98.112 94.72-98.112 94.72V683.008s0 42.688-36.288 42.688C0 725.76 0 696 0 683.008v-491.264s0-170.88 170.688-170.88H448c35.264 0 42.688-21.376 42.688-21.376h42.688s7.296 21.376 42.688 21.376h277.312C1024 20.864 1024 191.744 1024 191.744V682.048c-0.128 13.952 4.16 43.712-36.352 43.712z"  horiz-adv-x="1025" />

    
    <glyph glyph-name="huishouzhan" unicode="&#58908;" d="M810.4-125.3H213.6c-56.8 0-103.1 47-103.1 104.9v658c0 19.3 15.6 34.9 34.9 34.9s34.9-15.6 34.9-34.9v-658c0-19.3 14.9-35.1 33.3-35.1h596.8c18.3 0 33.3 15.7 33.3 35.1v658c0 19.3 15.6 34.9 34.9 34.9 19.3 0 34.9-15.6 34.9-34.9v-658c0-57.8-46.3-104.9-103.1-104.9zM324.1 56c-19.3 0-34.9 15.6-34.9 34.9v385c0 19.3 15.6 34.9 34.9 34.9s34.9-15.6 34.9-34.9V91c0.1-19.3-15.6-35-34.9-35zM512 56c-19.3 0-34.9 15.6-34.9 34.9v385c0 19.3 15.6 34.9 34.9 34.9 19.3 0 34.9-15.6 34.9-34.9V91c0-19.3-15.6-35-34.9-35zM699.8 56c-19.3 0-34.9 15.6-34.9 34.9v385c0 19.3 15.6 34.9 34.9 34.9 19.3 0 34.9-15.6 34.9-34.9V91c0.1-19.3-15.6-35-34.9-35zM989.1 605.7H34.9C15.6 605.7 0 621.3 0 640.6s15.6 34.9 34.9 34.9h954.2c19.3 0 34.9-15.6 34.9-34.9s-15.6-34.9-34.9-34.9zM806.5 605.7h-589c-19.3 0-34.9 15.6-34.9 34.9V811.8c0 44.9 36.5 81.5 81.5 81.5H760c44.9 0 81.5-36.5 81.5-81.5v-171.3c-0.1-19.2-15.7-34.8-35-34.8z m-554.1 69.8h519.2V811.8c0 6.4-5.2 11.6-11.6 11.6H264c-6.4 0-11.6-5.2-11.6-11.6v-136.3z"  horiz-adv-x="1024" />

    
    <glyph glyph-name="yonghutouxiang" unicode="&#58903;" d="M959.68-25.024C944.448 156.672 820.032 306.944 651.84 361.6c70.464 45.632 117.248 124.48 117.248 214.464C769.152 717.376 654.208 832 512.512 832c-141.76 0-256.704-114.624-256.704-255.936 0-89.984 46.784-168.832 117.248-214.528-168.192-54.592-292.544-204.864-307.84-386.56-0.192-3.456-0.64-5.44 0-10.176 1.28-16 15.424-28.8 31.488-28.8 17.92 0 32.064 14.656 32.064 32 16.704 197.76 182.272 351.936 383.744 351.936 201.408 0 366.976-154.176 383.68-351.936 0-17.344 14.144-32 32.064-32 16.064 0 30.208 12.8 31.424 28.8 0.64 4.736 0.256 6.784 0 10.176zM320 576.064C320 682.048 406.208 768 512.512 768S704.96 682.048 704.96 576.064c0-106.048-86.144-192-192.448-192S320 470.016 320 576.064z"  horiz-adv-x="1024" />

    
    <glyph glyph-name="liebiao" unicode="&#58928;" d="M351.29216 766.28992h703.80288c30.10816 0 54.5152 24.41344 54.5152 54.528 0 30.11584-24.40704 54.528-54.5152 54.528H351.29216c-30.10816 0-54.5152-24.41216-54.5152-54.528 0-30.11456 24.40704-54.528 54.5152-54.528z m-0.01536-434.89024h701.21984c30.10816 0 54.5152 24.41344 54.5152 54.528s-24.40704 54.528-54.5152 54.528H351.2768c-30.10816 0-54.5152-24.41344-54.5152-54.528s24.40704-54.528 54.5152-54.528z m703.81824-328.24576H351.29216c-30.10816 0-54.5152-24.41344-54.5152-54.528s24.40704-54.528 54.5152-54.528h703.80288c30.10816 0 54.5152 24.41344 54.5152 54.528s-24.40704 54.528-54.5152 54.528zM0.06272 820.73344c0-41.472 33.6128-75.09376 75.07584-75.09376 41.46432 0 75.07712 33.62048 75.07712 75.09376 0 41.472-33.6128 75.09376-75.07712 75.09376C33.6768 895.8272 0.064 862.20672 0.064 820.73344z m0-434.26176c0-41.472 33.6128-75.09248 75.07584-75.09248 41.46432 0 75.07712 33.62048 75.07712 75.09248 0 41.47328-33.6128 75.09376-75.07712 75.09376C33.6768 461.56544 0.064 427.94496 0.064 386.47168z m0-438.272c0-41.472 33.6128-75.09248 75.07584-75.09248 41.46432 0 75.07712 33.62048 75.07712 75.09248 0 41.47328-33.6128 75.09376-75.07712 75.09376C33.6768 23.29344 0.064-10.32704 0.064-51.80032z"  horiz-adv-x="1109" />

    
    <glyph glyph-name="fenlei" unicode="&#58913;" d="M361.381 832.46H181.766c-64.816 0-117.545-52.728-117.545-117.545v-179.619c0-38.365 18.556-72.388 47.074-93.855v-1.398h1.868c19.332-13.962 42.986-22.291 68.602-22.291h297.159V714.915c0.002 64.816-52.726 117.545-117.543 117.545zM64.222 234.512v-179.619c0-64.816 52.728-117.544 117.545-117.544h179.615c64.816 0 117.545 52.728 117.545 117.544V352.056H181.766c-64.816 0-117.544-52.728-117.544-117.544zM841.789 832.46H662.17c-64.816 0-117.544-52.728-117.544-117.545v-297.164H841.79c64.816 0 117.544 52.728 117.544 117.544v179.62c-0.001 64.816-52.729 117.545-117.545 117.545zM841.789 352.056H544.625v-297.164c0-64.816 52.728-117.544 117.544-117.544h179.619c64.816 0 117.544 52.728 117.544 117.544v179.62c0.001 64.816-52.727 117.544-117.543 117.544z"  horiz-adv-x="1024" />

    
    <glyph glyph-name="tushu1" unicode="&#58885;" d="M923.685904-73.820109h-22.538835v94.273011c1.896296 1.191958 3.792592 2.383915 5.417989 3.738413 12.678095 9.589841 28.498623 28.065184 31.532697 61.439996V803.894131a92.593434 92.593434 0 0 1-92.214175 92.105815H166.901182A92.593434 92.593434 0 0 1 74.199388 803.894131v-808.418159h0.379259A80.132059 80.132059 0 0 1 73.061611-19.640217v-28.877882C73.061611-93.866668 110.499915-128 160.182876-128H923.685904a27.089946 27.089946 0 0 1 0 54.179891zM128.37928 803.894131a38.359363 38.359363 0 0 0 38.521902 37.925924H224.765306v-778.185779H160.182876a89.77608 89.77608 0 0 1-31.803596-5.851429z m718.750438-877.71424H160.182876c-19.071322 0-32.941374 10.835978-32.941374 25.03111V-19.640217a31.695236 31.695236 0 0 0 32.941374 29.365501h686.946842z m37.221585 163.298193a30.503279 30.503279 0 0 0-10.18582-22.051216 24.70603 24.70603 0 0 0-10.835978-4.442751 27.089946 27.089946 0 0 1-4.76783 0.487619H278.945198V841.820055h566.938382a38.359363 38.359363 0 0 0 38.521903-37.925924zM367.20424 625.100489h164.381791a21.671957 21.671957 0 1 1 0 43.343913H367.20424a21.671957 21.671957 0 0 1 0-43.343913zM746.46348 561.168218h-379.25924a21.671957 21.671957 0 0 1 0-43.343914h379.25924a21.671957 21.671957 0 1 1 0 43.343914zM677.871737 453.837853H367.20424a21.671957 21.671957 0 0 1 0-43.343913h310.613317a21.671957 21.671957 0 0 1 0 43.343913z"  horiz-adv-x="1024" />

    
    <glyph glyph-name="tubiao-" unicode="&#58912;" d="M564.965517 323.972414c-3.531034 0-7.062069 1.765517-10.593103 3.531034L278.951724 511.117241c-5.296552 3.531034-7.062069 8.827586-7.062069 14.124138 0 5.296552 3.531034 12.358621 8.827586 14.124138l275.42069 173.02069c5.296552 3.531034 12.358621 3.531034 19.42069 0l286.013793-178.317241c5.296552-3.531034 8.827586-8.827586 8.827586-14.124138s-5.296552-12.358621-10.593103-14.124138L573.793103 325.737931c-3.531034-1.765517-7.062069-1.765517-8.827586-1.765517zM321.324138 525.241379L564.965517 362.813793l252.468966 157.131035-252.468966 158.896551L321.324138 525.241379zM570.262069 188.027586c-3.531034 0-7.062069 0-8.827586 1.765517l-280.717242 165.958621c-8.827586 5.296552-10.593103 15.889655-7.062069 24.717242 5.296552 8.827586 15.889655 10.593103 24.717242 7.062068l271.889655-160.662068 271.889655 171.255172c8.827586 5.296552 19.42069 3.531034 24.717242-5.296552 5.296552-8.827586 3.531034-19.42069-5.296552-24.717241l-280.717242-176.551724c-5.296552-1.765517-8.827586-3.531034-10.593103-3.531035zM570.262069 64.441379c-3.531034 0-7.062069 0-8.827586 1.765518l-280.717242 165.95862c-8.827586 5.296552-10.593103 15.889655-7.062069 24.717242 5.296552 8.827586 15.889655 10.593103 24.717242 7.062069l271.889655-160.662069 271.889655 171.255172c8.827586 5.296552 19.42069 3.531034 24.717242-5.296552 5.296552-8.827586 3.531034-19.42069-5.296552-24.717241l-280.717242-176.551724c-5.296552-1.765517-8.827586-3.531034-10.593103-3.531035z"  horiz-adv-x="1122" />

    
    <glyph glyph-name="tushujieyue" unicode="&#59024;" d="M824.893 896H199.107A113.89 113.89 0 0 1 85.33 782.223v-796.446A113.89 113.89 0 0 1 199.107-128h625.786A113.89 113.89 0 0 1 938.67-14.223V782.223A113.89 113.89 0 0 1 824.893 896zM625.777 839.107h113.776v-227.554l-34.14 45.497c-10.721 14.336-34.816 14.336-45.496 0l-34.14-45.497z m-483.554-853.33V782.223a56.965 56.965 0 0 0 56.894 56.894H256v-910.224h-56.893a56.965 56.965 0 0 0-56.884 56.884z m739.554 0a56.965 56.965 0 0 0-56.894-56.894h-512V839.107h256v-312.884a28.436 28.436 0 0 1 51.2-17.06l62.587 83.416 62.587-83.415a28.436 28.436 0 0 1 51.2 17.06V839.106h28.447a56.965 56.965 0 0 0 56.893-56.894z"  horiz-adv-x="1024" />

    
    <glyph glyph-name="lunbo1" unicode="&#59077;" d="M1160.81327229 124.38030688000003h-76.27824975v60.05631885h76.25305591V737.7041792h-76.25305591V797.76049805h76.25305591a60.57569971 60.57569971 0 0 0 61.1212434-60.05631885v-553.26755347a60.57569971 60.57569971 0 0 0-61.09508056-60.05631885z m-171.58754443-85.03892578H256.07604011a60.60186254 60.60186254 0 0 0-61.1212434 60.05534986V820.04058033A60.60186254 60.60186254 0 0 0 256.07604011 880.09689916h733.14968775a60.60186254 60.60186254 0 0 0 61.1212434-60.05631883V99.39673096000001a60.60186254 60.60186254 0 0 0-61.06891772-60.05631885zM256.07604011 99.39673096000001h2.44380322a66.21718359 66.21718359 0 0 0-2.44380322 2.26163232v-2.26163232zM989.22572786 820.04058033H256.07604011v-604.25021119l26.46613697 29.74230615 176.0080957 160.1485686 176.00809571-160.1485686 117.27736084 100.09321875 237.51984375-246.22916308V820.04058033zM681.56330526 573.8899057599999a114.26185107 114.26185107 0 1 0 114.23568823-112.44208008 113.35293457 113.35293457 0 0 0-114.23568823 112.44208008zM21.52034944 184.82616138000003V738.09468384a60.57569971 60.57569971 0 0 0 61.09508057 60.02918701h76.27921875v-60.02918702h-76.27921875v-553.26852246h76.27921875v-60.05534985h-76.27921875A60.57569971 60.57569971 0 0 0 21.4951556 184.82616138000003zM458.88845174-46.99890381a32.4457998 32.4457998 0 1 0-31.95161279-32.4457998 32.21130322 32.21130322 0 0 0 31.92544995 32.4457998z m150.03517676 0a32.4457998 32.4457998 0 1 0-32.34114844-32.4457998 32.39347412 32.39347412 0 0 0 32.18514038 32.4457998z m150.45184424 0a32.4457998 32.4457998 0 1 0-32.36731129-32.4457998 32.39347412 32.39347412 0 0 0 32.34114844 32.4457998z"  horiz-adv-x="1239" />

    
    <glyph glyph-name="shanchu" unicode="&#59003;" d="M523.906977-128C235.75814-128 0 100.613953 0 384S235.75814 896 523.906977 896s523.906977-228.613953 523.906976-512S812.055814-128 523.906977-128z m0 952.55814C273.860465 824.55814 71.44186 626.902326 71.44186 384S273.860465-56.55814 523.906977-56.55814s452.465116 197.655814 452.465116 440.55814S773.953488 824.55814 523.906977 824.55814zM352.446512 407.813953h366.734883c19.051163 0 35.72093-16.669767 35.720931-35.72093s-16.669767-35.72093-35.720931-35.72093H352.446512c-19.051163 0-35.72093 16.669767-35.720931 35.72093s16.669767 35.72093 35.720931 35.72093z"  horiz-adv-x="1047" />

    
    <glyph glyph-name="lunbo2" unicode="&#58910;" d="M245.76 732.16v-696.32h1556.48V732.16H245.76z m122.88-737.28H245.76c-24.576 0-40.96 16.384-40.96 40.96V732.16c0 24.576 16.384 40.96 40.96 40.96h122.88v-40.96h1310.72V773.12h122.88c24.576 0 40.96-16.384 40.96-40.96v-696.32c0-24.576-16.384-40.96-40.96-40.96h-122.88v40.96H368.64v-40.96zM368.64 855.04v-942.08h1310.72V855.04H368.64z m0 40.96h1310.72c24.576 0 40.96-16.384 40.96-40.96v-942.08c0-24.576-16.384-40.96-40.96-40.96H368.64c-24.576 0-40.96 16.384-40.96 40.96V855.04c0 24.576 16.384 40.96 40.96 40.96zM1392.64 568.32m-122.88 0a122.88 122.88 0 1 1 245.76 0 122.88 122.88 0 1 1-245.76 0ZM327.68 117.76l446.464 368.64 270.336-368.64 233.472 184.32 425.984-413.696H327.68z"  horiz-adv-x="2088" />

    
    <glyph glyph-name="huaban" unicode="&#58979;" d="M941.795556-128h-768a90.453333 90.453333 0 0 0-90.453334 90.453333V795.875556A100.124444 100.124444 0 0 0 182.328889 896h656.213333a103.253333 103.253333 0 0 0 103.253334-103.253333zM821.76 734.435556a28.444444 28.444444 0 0 1-28.444444 28.444444H410.453333a28.444444 28.444444 0 0 1-28.444444-28.444444 28.444444 28.444444 0 0 1 28.444444-28.444445h384a28.444444 28.444444 0 0 1 27.306667 28.444445z m-41.528889-109.226667v2.56a26.168889 26.168889 0 0 1-26.168889 26.168889H409.031111a26.168889 26.168889 0 0 1-26.168889-26.168889v-2.56a26.168889 26.168889 0 0 1 26.168889-26.168889h345.031111a26.168889 26.168889 0 0 1 26.168889 26.168889z m-142.222222-106.382222a28.444444 28.444444 0 0 1-28.444445 28.444444h-199.111111a28.444444 28.444444 0 0 1-28.444444-28.444444 28.444444 28.444444 0 0 1 28.444444-28.444445h199.111111a28.444444 28.444444 0 0 1 27.591112 28.444445zM252.586667 896H197.688889v-802.133333h54.897778z m662.186666-991.004444v121.173333a4.551111 4.551111 0 0 1-4.551111 4.551111H176.64a69.12 69.12 0 0 1-65.137778-69.688889v4.551111A65.137778 65.137778 0 0 1 176.64-99.555556H910.222222a4.551111 4.551111 0 0 1 4.551111 4.551112z"  horiz-adv-x="1024" />

    
    <glyph glyph-name="kehuan" unicode="&#58888;" d="M318.74048 884.25472c-47.77984-5.50912-88.4224-23.27552-119.66464-52.48-53.7088-50.432-72.89856-123.5456-56.97536-219.10528 2.03776-12.86144 4.70016-26.74688 5.91872-30.62784l2.03776-7.14752-25.32352-25.32352-25.09824-25.11872-7.96672 2.44736c-25.93792 8.58112-56.15616-2.03776-71.2704-25.11872-20.40832-31.4368-8.98048-73.50272 24.51456-90.65472 9.59488-5.10976 27.36128-7.14752 39.20896-4.70016 36.352 7.35232 59.21792 45.74208 47.57504 80.45568l-2.44736 7.76192L146.40128 512l17.152 17.152 8.98048-22.05696c30.42304-75.14112 80.66048-155.392 138.4448-221.15328 10.82368-12.65664 22.86592-26.34752 26.74688-30.83264l7.14752-8.17152-49.2032-49.2032-49.21344-49.21344-9.39008 2.65216c-5.71392 1.4336-15.11424 2.24256-23.48032 1.62816-52.8896-3.88096-76.57472-67.79904-38.79936-105.5744 29.61408-29.61408 78.61248-22.46656 98.63168 14.09024 7.14752 13.06624 9.39008 33.6896 5.31456 48.18944l-2.65216 9.39008 49.21344 49.21344 49.00864 49.00864 9.18528-7.96672c5.10976-4.29056 19.39456-16.9472 31.85664-27.77088 65.95584-57.78432 150.90688-110.87872 221.15328-138.6496 10.00448-3.88096 17.9712-7.35232 17.9712-7.96672s-7.14752-8.36608-16.128-17.152l-16.15872-15.91296-7.76192 2.44736c-25.93792 8.58112-56.15616-2.03776-71.2704-25.11872-20.41856-31.44704-8.98048-73.51296 24.50432-90.66496 9.59488-5.10976 27.36128-7.14752 39.41376-4.70016 36.1472 7.35232 59.01312 45.74208 47.37024 80.45568l-2.44736 7.96672 24.50432 24.50432 24.50432 24.50432 13.88544-3.47136c57.18016-13.27104 109.66016-14.09024 154.99264-2.24256 140.9024 36.95616 183.98208 193.57696 103.936 378.58304l-10.82368 25.11872 3.06176 14.49984c17.5616 83.92704-2.85696 183.16288-53.2992 258.72384-54.51776 81.88928-146.41152 136.40704-250.75712 149.26848-25.73312 3.06176-76.36992 1.4336-100.66944-3.26656l-18.3808-3.67616-26.54208 11.23328C456.57088 871.59808 410.624 883.02592 358.3488 885.07392c-12.8512 0.6144-30.8224 0.2048-39.60832-0.8192z m93.72672-47.77984c22.86592-4.90496 69.4272-19.80416 72.89856-23.27552 1.024-1.024-2.85696-4.90496-10.00448-9.59488-22.66112-15.11424-53.7088-50.8416-67.38944-77.59872-41.65632-81.47968-21.44256-174.7968 60.24192-276.69504 29.20448-36.352 86.784-92.49792 123.9552-120.8832 44.51328-33.8944 94.95552-58.19392 137.22624-66.16064 13.68064-2.44736 24.50432-3.06176 45.53728-2.2528 30.62784 1.2288 50.85184 6.32832 75.55072 18.7904 31.24224 15.9232 67.38944 47.37024 82.69824 72.28416 4.29056 6.94272 8.17152 12.24704 8.36608 11.84768 1.6384-1.62816 15.11424-42.88512 18.9952-57.78432 13.47584-53.7088 14.90944-104.5504 4.08576-143.75936-2.24256-8.36608-7.76192-23.07072-12.46208-32.67584-11.64288-24.09472-36.1472-48.59904-60.85632-60.84608-25.73312-12.65664-44.71808-16.9472-79.63648-18.176-60.03712-2.24256-123.74016 13.68064-195.42016 48.39424-84.33664 40.83712-151.71584 89.64096-225.2288 163.35872-70.64576 70.44096-119.4496 136.61184-158.86336 215.42912-37.98016 75.96032-55.13216 142.94016-52.8896 205.21984 1.8432 48.80384 13.68064 82.28864 39.61856 110.05952 24.29952 26.33728 53.9136 41.86112 94.13632 49.21344 18.176 3.47136 74.73152 0.6144 99.44064-4.89472z m262.4-39.41376c127.01696-20.82816 222.57664-112.51712 249.32352-238.70464 6.12352-28.99968 7.55712-77.39392 3.06176-103.5264-9.18528-54.3232-27.96544-89.0368-63.49824-117.62688-27.97568-22.46656-65.54624-36.95616-95.96928-36.95616-50.6368 0-107.81696 26.34752-173.1584 80.04608-42.27072 34.5088-101.48864 100.87424-127.82592 142.73536-39.41376 63.09888-48.39424 126.40256-24.70912 176.83456 20.21376 43.49952 61.25568 80.04608 101.28384 90.25536 4.29056 1.2288 13.06624 3.47136 19.18976 5.31456 26.13248 7.34208 73.50272 8.16128 112.30208 1.62816z m-592.384-311.808c11.64288-6.12352 13.88544-22.46656 4.49536-32.06144-13.27104-13.06624-34.9184-4.08576-34.9184 14.49984 0 16.128 15.5136 25.10848 30.42304 17.5616z m150.70208-379.61728c14.49984-14.29504 1.024-38.38976-19.2-34.5088-5.91872 1.024-14.29504 9.39008-15.31904 15.31904-3.87072 20.21376 20.224 33.6896 34.51904 19.18976z m372.04992-143.14496c11.64288-6.12352 13.88544-22.46656 4.49536-32.06144-13.27104-13.06624-34.9184-4.08576-34.9184 14.49984 0 16.13824 15.5136 25.11872 30.42304 17.5616z"  horiz-adv-x="1024" />

    
    <glyph glyph-name="icon02" unicode="&#58625;" d="M509.91312987-123.08557503999998c-279.30207325 0-505.72154482 226.46509984-505.72154483 505.80319446S230.61105663 888.50400371 509.91312987 888.50400371c279.30447432 0 505.72394591-226.44828969 505.72394591-505.78638429S789.2176042-123.08557503999998 509.91312987-123.08557503999998zM509.91312987 825.2831063c-244.39201484 0-442.50545084-198.14225284-442.50545084-442.56548688S265.52111377-59.850269819999994 509.91312987-59.850269819999994s442.50545084 198.14465394 442.50545085 442.56788924S754.30514471 825.2831063 509.91312987 825.2831063zM699.55900821 351.09996680999996L541.52357795 351.09996680999996l0-158.05944619c0-17.44902522-14.15181725-31.6056459-31.60804699-31.60564591-17.45622975 0-31.6056459 14.15662069-31.60564591 31.60564591l0 158.05944619-158.0402337 0c-17.45622975 0-31.60804699 14.15421833-31.60804698 31.61765261 0 17.4514263 14.15421833 31.6056459 31.60804698 31.60564591l158.0402337 0 0 158.0666507c0 17.44902522 14.15181725 31.59844137 31.60564591 31.59844139 17.45863083 0 31.60804699-14.1470138 31.60804699-31.59844139l0-158.0666507 158.03543152 0c17.45863083 0 31.60804699-14.15421833 31.608047-31.60564591C731.16705519 365.25418514 717.01763904 351.09996680999996 699.55900821 351.09996680999996z"  horiz-adv-x="1024" />

    
    <glyph glyph-name="huishouzhan1" unicode="&#58898;" d="M799.618 723.716H691.282c-11.7 45.01-52.316 78.474-100.928 78.474H433.406c-48.612 0-89.23-33.464-100.928-78.474H224.14c-57.706 0-104.632-46.952-104.632-104.632v-26.16h26.158v-26.158h52.316v-497.004c0-57.68 46.926-104.632 104.632-104.632h418.53c57.708 0 104.632 46.952 104.632 104.632V566.768h52.316v26.158h26.158v26.16c0.002 57.678-46.924 104.63-104.632 104.63z m-366.214 26.158h156.948c19.26 0 35.968-10.602 45.036-26.158h-247.02c9.07 15.556 25.776 26.158 45.036 26.158z m340.056-680.11c0-28.866-23.474-52.316-52.316-52.316h-418.53c-28.84 0-55.944 23.45-55.944 52.316l3.626 497.004H773.46v-497.004z m-601.636 549.32c0 28.866 23.476 52.316 52.316 52.316h575.48c28.842 0 52.316-23.45 52.316-52.316H171.824zM406.434 359.638c5.238 0 10.476 1.746 13.966 6.984l71.58 101.26c8.73 12.22 19.204 12.22 27.934 0l31.426-43.646-22.696-15.712 80.31-36.662-8.73 89.038-22.696-15.712-27.934 43.646c-10.476 15.712-26.188 24.442-41.9 24.442s-31.426-8.73-41.9-24.442l-71.58-101.26c-5.238-8.73-3.492-19.204 3.492-24.442 1.746-1.748 5.238-3.494 8.728-3.494z m-76.818-176.332h136.176c10.476 0 17.458 6.984 17.458 17.458s-6.984 17.458-17.458 17.458H329.616c-6.984 0-10.476 1.746-10.476 1.746s0 3.492 3.492 10.476l31.426 43.646 22.696-15.712 8.73 89.038-80.31-36.662 22.696-15.712-31.426-43.646c-12.22-15.712-13.966-33.17-6.984-47.138 5.24-12.224 20.952-20.952 40.156-20.952z m359.648 47.138l5.238-10.476s-3.492-1.746-10.476-1.746h-99.514v27.934l-76.818-45.392 76.818-45.392v27.934h99.514c19.204 0 34.916 6.984 41.9 20.95 6.984 13.966 5.238 29.68-6.984 47.138l-71.58 101.26c-5.238 8.73-15.712 10.476-24.442 3.492-8.73-5.238-10.476-15.712-3.492-24.442l69.836-101.26z"  horiz-adv-x="1024" />

    
    <glyph glyph-name="huishouzhan2" unicode="&#58941;" d="M510.546 46.87c15.486 0 27.845 12.508 27.845 27.993V592.301c0 15.486-12.358 27.994-27.845 27.994s-27.994-12.508-27.994-27.994v-517.439c0-15.484 12.508-27.992 27.994-27.992z m135.651 0.148l1.639-0.15c14.592 0 26.952 11.466 27.845 26.357l29.334 517.587c0.893 15.338-10.87 28.59-26.356 29.334-15.04 0.745-28.441-10.87-29.334-26.207L619.84 76.352c-0.745-15.337 10.87-28.589 26.356-29.334z m-273.982-0.148l1.639 0.15c15.485 0.744 27.25 13.996 26.356 29.333L370.727 593.94c-0.745 15.338-14.294 26.952-29.334 26.207-15.485-0.745-27.25-13.996-26.356-29.334l29.334-517.587c0.893-14.891 13.252-26.356 27.844-26.356z m414.547 628.52l-37.97-680.786H272.896L234.33 675.39h552.432zM379.809 776.346h261.474l13.551-45.118H366.26l13.55 45.118zM91.682 675.39h86.662l40.353-710.268c0.745-14.742 13.103-26.356 27.845-26.356h528.606c14.742 0 27.1 11.614 27.845 26.356l39.609 710.268h86.661c15.486 0 27.994 12.507 27.994 27.845 0 15.485-12.508 27.993-27.994 27.993H710.672l-13.55 72.963c0 15.486-12.509 27.994-27.994 27.994H351.964c-15.486 0-27.993-12.508-27.993-27.994l-13.551-72.963H91.83c-15.485 0-27.993-12.508-27.993-27.993 0-15.338 12.508-27.845 27.845-27.845z"  horiz-adv-x="1024" />

    
    <glyph glyph-name="sousuo" unicode="&#58924;" d="M97.8688 384c0 228.35712 185.77408 414.1312 414.1312 414.1312 228.35712 0 414.1312-185.77408 414.1312-414.1312 0-228.35712-185.77408-414.1312-414.1312-414.1312-228.35712 0-414.1312 185.77408-414.1312 414.1312z m784.62464-337.10592C963.80928 136.0128 1013.76 254.13632 1013.76 384c0 276.64384-225.11616 501.76-501.76 501.76C235.26912 885.76 10.24 660.64384 10.24 384s225.02912-501.76 501.76-501.76c115.23072 0 221.2608 39.52128 306.176 105.15456l92.18048-92.3648a44.0064 44.0064 0 0 1 31.0272-12.78976c11.2128 0 22.4256 4.29568 30.9248 12.79488 17.1776 17.17248 17.1776 44.86656 0 61.952l-89.81504 89.9072z"  horiz-adv-x="1024" />

    
    <glyph glyph-name="xingzhuang" unicode="&#58916;" d="M824.980645 13.01471a64.280774 64.280774 0 0 0-64.412903-63.950452H296.464516a64.280774 64.280774 0 0 0-64.412903 63.950452V691.860645h592.929032v-678.845935zM360.877419 806.647742c0 7.366194 5.780645 13.113806 13.212904 13.113806H683.767742c7.432258 0 13.212903-5.747613 13.212903-13.113806v-38.548645H360.877419V806.647742z m657.341936-38.548645h-244.43871V806.647742C773.780645 855.832774 733.316129 896 683.767742 896h-309.677419C324.541935 896 284.077419 855.832774 284.077419 806.647742v-38.548645H38.812903A38.647742 38.647742 0 0 1 0 729.583484a38.647742 38.647742 0 0 1 38.812903-38.548645h115.612903v-678.020129C154.425806-64.875355 218.012903-128 296.464516-128h464.103226c78.451613 0 142.03871 63.124645 142.03871 141.01471V691.860645h115.612903A38.647742 38.647742 0 0 1 1057.032258 730.376258c0 21.338839-17.341935 37.722839-38.812903 37.722839zM528.516129 64.677161a38.647742 38.647742 0 0 1 38.812903 38.515613v409.930323A38.647742 38.647742 0 0 1 528.516129 551.671742a38.647742 38.647742 0 0 1-38.812903-38.548645v-409.930323A38.647742 38.647742 0 0 1 528.516129 64.677161m-180.851613 0a38.647742 38.647742 0 0 1 38.812903 38.515613v409.930323a38.647742 38.647742 0 0 1-38.812903 38.548645 38.647742 38.647742 0 0 1-38.812903-38.548645v-409.930323c0.825806-21.305806 18.167742-38.515613 38.812903-38.515613m361.703226 0a38.647742 38.647742 0 0 1 38.812903 38.515613v409.930323a38.647742 38.647742 0 0 1-38.812903 38.548645 38.647742 38.647742 0 0 1-38.812903-38.548645v-409.930323a38.647742 38.647742 0 0 1 38.812903-38.515613"  horiz-adv-x="1057" />

    
    <glyph glyph-name="lunbobankuai" unicode="&#58911;" d="M1062.998685 190.780058h-70.981145v56.037746h70.981145V763.037521h-70.981145v56.037746h70.981145a56.523407 56.523407 0 0 0 57.046425-56.037746v-516.219717a56.523407 56.523407 0 0 0-57.009067-56.037746z m-160.081161-79.31209H218.883436a56.523407 56.523407 0 0 0-57.009067 56.037746v672.452953a56.523407 56.523407 0 0 0 57.009067 56.037747h684.034088a56.560765 56.560765 0 0 0 57.195859-56.037747v-672.452953a56.560765 56.560765 0 0 0-56.971708-56.037746z m-684.034088 56.037746h2.278869l-2.278869 2.092076z m684.034088 672.452953H218.883436v-563.889159l24.693967 27.757363 164.377389 149.43399 164.377388-149.43399 109.423039 93.396244 221.27438-229.717401v672.452953z m-287.062694-229.754758a106.621152 106.621152 0 1 0 106.583793-104.902661 106.621152 106.621152 0 0 0-106.583793 104.902661zM0 247.191389V763.411106a56.523407 56.523407 0 0 0 57.009067 56.037746h71.205296v-56.037746H57.009067v-516.219717h71.205296v-56.037746H57.009067a56.523407 56.523407 0 0 0-57.009067 56.037746z m408.066867-216.3057a30.260383 30.260383 0 1 0-29.886798-30.260382 30.260383 30.260383 0 0 0 29.886798 30.260382z m139.98229 0a30.260383 30.260383 0 1 0-30.185666-30.260382 30.260383 30.260383 0 0 0 30.185666 30.260382z m140.393233 0a30.223024 30.223024 0 1 0-21.369061-8.891322 30.260383 30.260383 0 0 0 21.369061 8.891322z m0 0"  horiz-adv-x="1239" />

    
    <glyph glyph-name="shangchuan" unicode="&#58668;" d="M625.152-64.512H66.56V819.712h884.224V261.12c0-12.8-10.24-23.04-23.04-23.04s-23.04 10.24-23.04 23.04V773.12H113.152v-791.04h512c12.8 0 23.04-10.24 23.04-23.04 0-13.312-10.24-23.552-23.04-23.552zM519.168 171.52c23.04 42.496 67.584 71.168 118.784 71.168h54.272V296.96c0 55.296 33.28 102.912 80.896 124.416v2.56l-69.12 209.408-241.664-311.808-64.512 109.568-257.024-259.584h378.368zM398.336 608.256c0 42.496-34.304 76.8-76.8 76.8s-76.8-34.304-76.8-76.8 34.304-76.8 76.8-76.8 76.8 34.304 76.8 76.8zM934.4 72.704h-274.432c-12.8 0-23.04 10.24-23.04 23.04s10.24 23.04 23.04 23.04h274.432c12.8 0 23.04-10.24 23.04-23.04s-10.24-23.04-23.04-23.04zM797.184-64.512c-12.8 0-23.04 10.24-23.04 23.04v274.432c0 12.8 10.24 23.04 23.04 23.04s23.04-10.24 23.04-23.04V-40.96c0-13.312-10.24-23.552-23.04-23.552z"  horiz-adv-x="1024" />

    
    <glyph glyph-name="yonghu" unicode="&#59233;" d="M717.334442 591.526087c0 114.232532-97.422882 206.831775-217.575333 206.831775s-217.502248-92.599243-217.502248-206.831775 97.422882-206.831775 217.502248-206.831775c120.152452 0.073085 217.575334 92.599243 217.575333 206.831775m304.620085-656.014846c1.461709-4.458211 2.411819-9.135679 2.411819-13.959318 0-26.895439-22.87574-48.747984-51.159803-48.747983a49.990436 49.990436 0 0 0-51.086718 48.747983v0.146171h-1.315537c-13.374634 203.908358-190.606809 365.50025-408.109058 365.50025s-394.807508-161.591892-408.182142-365.50025h-1.169367v-0.146171c0-26.895439-22.87574-48.747984-51.086718-48.747983-28.137892-0.073085-51.013632 21.706374-51.086717 48.674898v0.073085c0 4.604382 0.877025 8.916423 2.119477 13.228464 14.836343 185.052316 137.61987 341.235886 308.932125 410.886303-79.590036 55.325673-131.69995 144.709157-131.69995 245.932482 0 168.096496 143.101278 304.473913 319.602598 304.473913 176.574406 0 319.602598-136.304332 319.602598-304.473913 0-93.987867-45.532225-182.640497-123.295125-239.939476 179.643994-66.069231 309.882235-225.541646 325.522518-416.148455"  horiz-adv-x="1024" />

    
    <glyph glyph-name="tongzhi1" unicode="&#58882;" d="M838.904 384.843c0 94.243-50.993 176.46-126.768 220.715-3.45 1.825-11.556 5.344-17.209 5.344-16.82 0-30.465-13.676-30.465-30.544 0-11.32 6.018-21.423 15.148-26.695 58.58-33.373 98.134-96.447 98.134-168.82 0-73.65-40.929-137.703-101.22-170.59-8.782-5.367-14.59-15.115-14.59-26.17 0-16.873 13.644-30.549 30.475-30.549 7.146-0.06 15.615 4.164 15.615 4.164 78.06 43.639 130.88 127.197 130.88 223.145z m-35.17 376.025c-5.667 3.399-11.31 6.176-18.143 6.176-16.742 0-30.32-13.613-30.32-30.398 0-12.096 7.185-21.82 17.312-27.339 111.31-65.103 186.181-185.967 186.181-324.463 0-138.396-74.779-259.189-185.961-324.314-9.765-5.308-18.169-15.37-18.169-27.809 0-16.788 13.58-30.385 30.323-30.385 6.731 0 12.098 2.59 17.909 5.97 129.18 75.56 216.044 215.83 216.044 376.54 0 160.365-86.486 300.355-215.177 376.032v-0.01zM79.43 596.208h150.58c20.09 0 50.94 8.273 185.518 107.07 23.992 17.614 47.414 35.307 67.696 50.832 0 0 0.518-396.698 0.518-397.858 0-16.937 13.696-30.672 30.607-30.672 16.896 0 30.606 13.726 30.606 30.672 0 3.287-1.492 451.598-1.492 451.598a36.977 36.977 0 0 1-20.865 33.314c-12.749 6.162-27.91 4.47-39.013-4.378-0.516-0.423-54.582-43.49-114.292-87.564-103.852-76.68-134.083-89.453-140.217-91.48H98.974c-0.753 0-1.453-0.099-2.205-0.115H30.344c-16.742 0-30.323-13.61-30.323-30.392V142.03c0-16.788 13.567-30.392 30.323-30.392l222.803-0.017c6.044-2.199 34.576-15.424 126.73-90.756 53.614-43.808 101.714-86.574 102.194-87.002a36.851 36.851 0 0 1 24.51-9.33 36.89 36.89 0 0 1 15.122 3.25c13.243 5.973 21.762 19.172 21.762 33.739l0.065 170.396c0 0.434-0.04 0.854-0.065 1.288v0.92h-0.036c-1.144 15.786-14.242 28.263-30.284 28.263-16.795 0-30.398-13.64-30.398-30.471 0-1.772 0.466-111.492 0.466-111.492-16.34 13.844-34.55 29.039-53.212 44.17-123.007 99.876-153.445 108.238-174.08 108.238-0.4 0-0.788-0.109-1.192-0.122-0.402 0.013-0.776 0.122-1.194 0.122H86.432c-21.256 0-26.17 6.018-26.17 27.398v372.38c0 14.489 1.712 23.602 19.168 23.602v-0.006z"  horiz-adv-x="1024" />

    
    </font>
</defs>
</svg>
